<svg xmlns="http://www.w3.org/2000/svg" xml:space="preserve" viewBox="-315 210 100 100">
	<circle fill="#F8F6D8" cx="-265" cy="260" r="50" />
	<path fill="#111212" d="M-237.438 259.925c.058-5.344-1.64-10.739-4.967-14.928-1.608-1.771-2.93-3.787-4.633-5.461-3.754-3.726-9.375-3.974-13.897-6.321-.263-2.357-1.125-4.715-.603-7.093.159-.791.392-1.593-.029-2.349-1.186-2.732-.167-5.698-.378-8.547-.158-1.488-.057-3.309-1.474-4.228-.33 3.097-1.469 5.979-2.392 8.918-.426 2.29-.426 4.676-1.413 6.836.626 2.188-.614 4.03-1.956 5.646-2.966 1.52-6.496 1.881-9.077 4.11-1.841 1.562-3.828 2.931-5.888 4.202-1.545 1.934-3.256 3.797-3.944 6.24-2.762 3.335-3.088 7.811-4.654 11.717-.029 5.799 1.146 12.043 4.85 16.691 2.65 2.188 4.502 5.131 7.148 7.32 2.54 1.516 5.251 2.762 7.874 4.127 1.71.398 3.475.594 5.176 1.059 1.38 7.109 2.322 14.391 5.092 21.133.919-2.768.808-5.734 1.601-8.531 1.118-4.136-1.176-8.441.117-12.501 1.938-1.733 5.17-.608 7.32-2.095 4.092-2.523 8.422-4.98 11.39-8.84 1.105-2.219 3.426-3.877 3.426-6.539.019-3.585 2.109-6.942 1.311-10.566zm-30.374 21.93c-2.965-.721-5.727-2.139-8.214-3.871-2.676-1.783-3.674-5.11-6.314-6.934-2.472-2.951-1.937-6.982-2.95-10.476.406-2.438.885-4.856 1.138-7.325 1.206-1.956 3.067-3.516 3.583-5.87 1.767-2.532 4.458-4.284 6.619-6.479 1.572-1.813 4.074-1.049 6.139-1.119-.205 2-.368 4.068.133 6.041.244 1.212.791 2.406.603 3.676-.414 2.699.599 5.406-.117 8.074-1.443 5.578.131 11.209.268 16.832-.205 2.491-.321 5-.888 7.451zm22.477-10.57c-1.964 1.396-3.637 3.111-5.351 4.785-2.979 2.06-5.923 4.24-9.469 5.27.32-2.529.632-5.131-.174-7.607-1.978-5.594.446-11.445.855-17.102-.361-3.363-.016-6.951-1.558-10.049-.202-2.327.804-4.574 1.486-6.764 2.342.935 4.547 2.197 6.496 3.82 2.354 1.764 5.96 2.908 6.487 6.198.269 2.161 2.634 3.468 2.565 5.679-.148 5.256.577 10.753-1.337 15.77z" />
</svg>
